# xmcd
#
# Track frame offsets:
#	150
#	16242
#	37915
#	56342
#	69680
#	87540
#	108032
#	134625
#	154810
#	180642
#	203412
#
# Disc length: 2889 seconds
#
# Revision: 1
# Processed by: cddbd v1.5.1PL2 Copyright (c) Steve Scherf et al.
# Submitted via: audiograbber 1.83.01
#
DISCID=8a0b470b
DTITLE=Ray Drew - Too Much Lovin`
DYEAR=1900
DGENRE=Blues
TTITLE0=Too Much Lovin`
TTITLE1=Bottom Of The Bottle
TTITLE2=Girlfriend
TTITLE3=Going Fishing
TTITLE4=Let Me Wrap You
TTITLE5=Oh
TTITLE6=634-5789
TTITLE7=Oklahoma Shuffle
TTITLE8=Trying To Love Two
TTITLE9=I Don`t Want Much
TTITLE10=Set Me Free
EXTD=
EXTT0=
EXTT1=
EXTT2=
EXTT3=
EXTT4=
EXTT5=
EXTT6=
EXTT7=
EXTT8=
EXTT9=
EXTT10=
PLAYORDER=
